<svg xmlns="http://www.w3.org/2000/svg" overflow="visible" height="332" width="425.2"><path d="M313.5 199.8c2.7-5.1 5-9.5 3.9-15.2-1.6-8.2-.8-16.7-2.9-24.7-.8-3-2.8-6.2-2.1-9.4 1.4-6.5 1.6-12.8.4-19.4-.6-2.8-2.1-5.8-1.2-8.4.9-2.5 1-5.1 1-7.8 0-3.2-.5-6.6-2-9.5-.8-1.5-3-6.2-4.7-6 0-2.5-.2-5-.7-7.3-.5-2-1.3-4-2.7-5.6-.5-.6-1.9-1.4-2.1-2-.3-.7.3-2.6.3-3.3.3-4 0-9.3-3.3-12-4.2-3.2-10-.7-14.3.9a85.6 85.6 0 00-30.8 22h.1l-.2.1-3.1 3.8c-2.2 2.8-3.8 5-6.3 7.4-1.4 1.4-4 8-5 8.5-16.3 9.3-34.3 16.1-51.7 22.9a554.2 554.2 0 01-58.6 19.6c-11.5 3-37 8.5-40.4-9.2-2.7 1.5-5.3 9-6.5 11.8-1.6 3.9-3 7.9-4.1 11.9-.5.3-.7 1-1 2.4a66.6 66.6 0 0016.4 60.3c4.3 4.7 10.2 7.6 14.6 12 4.4 4.3 8.2 8.2 13.8 11a119 119 0 0032.8 10c1.5 0 2.9.2 4.3.3 1.9 0 1.8 1 2.3 2.8 1.5 6 1.8 11.8 1.3 18h.3c-.8.5-.7 2-.8 3 0 .6-3.5 0-4.4 0l-12.4.8c-5.8.5-15-.1-19.6 4-3.8 3.4-8.2 9.9-3 14.2 4.9 4 15.8-.2 21.2-1-2.7 3-4.8 7-2.4 10.6 1.8 2.5 6.3 3 9.4 1.7 3.2-1.2 5.9-1.8 8.5-4.4 1.7-1.6 3.3-6.4 5.4-7.1 0 5.5.2 10.8 5.4 14 4 2.5 9.2 1.8 10.2-3.3 1.3-6-1.1-12.6.6-18.5.7-2.1 2.1-4.4 2.7-6.7.5-2.4-1.7-5.2-2.5-7.4-2.8-6.2-.6-14-.5-20.6h2c-.3 3.4 2.6 7.3 3.5 10.5l1.2 6c.2 1.7.5 3.7 1.9 4.1h-.7c.6 1.6 1.4 3 1.7 4.8.4 2.9-.7 5.4.6 8.3 1.2 2.7 3.7 5.2 5.4 7.7 2 2.9 3.7 5.9 6 8.4 2.1 2.3 9.2 6.8 12.4 4 1-.8 1.8-1.5 2.3-2.8 1.3-3-1-6-3-8.3 1.5.1 3-.2 4.2.2 1.2.3 2.8 1.2 4 1.7 2.8 1.2 5.8 2 8.8 2.6 4.5.8 12.6 2.3 16.8-.1 3.4-2 7-3.8 6.1-8.4-1-5.4-8-5.9-12.4-7 3-.6 5.2-2 4.7-5.4-.2-2-1.8-3.5-3.3-4.7-.6-.6-1.3-.8-2-1h.7c-5.5-3.7-12.5-1.2-18.3 0h8.8c-4.8 0-9.5.2-14.3.8l-8.3.8c-.7 0-1.9.3-2.5 0-.6-.4-.7-1-1.1-1.4v-.1h.2c-1.4-3.7-2.1-7-2.4-11 0-1.5-.7-10.4.7-10.6 8.4-1 16.7-2.5 25.1-3.2 4.1-.3 8.3 0 12.2-1.4 3.3-1.2 7.4-1 10.9-2a83.3 83.3 0 0039.2-25.6 267 267 0 0015.4-19.5c2.2-3 5.2-7.6 8-12.6z" fill="#5A3D1C"/><path d="M397.5 207.4h1.8c-.9 0-1.5-.1-2-.3l.2.3zM405.9 275.8l2-1.6.7-.8a13 13 0 00-2.7 2.4zM323.5 209c-.7-.6-1.6-1-2.4-1.4.8.3 1.8 1.1 2.4 1.4zM312.7 202.1c0 .3 0 0 0 0zM332.4 212.7c-.4.5-.8.9-1.1 1l.4.4c.3-.4.7-.8.7-1.2v-.2zM363.7 282l-.3-.3.3.2zM333.8 208.8h.1-.1zM358.1 185.8l-.2.3.3-.1v-.2zM243.7 235.7c-.3-.2-.6-.5-1-.6l1 .6zM272.1 215.9c.3.8.4 1.7.5 2.8l2.5-2.8-.4.2c-.8.2-1.8.1-2.6-.2zM25 225.6c-.3-.3-.8-.5-1.3-.7a17.4 17.4 0 001.4.7zM54.8 290.5l-.7-.2.2 1 .5-.8zM43 285.1l1 .3-3.8.1 6.3.5a77 77 0 00-3.4-.9zM140.6 310.6c0-.3 0-.5.2-.8l-.2.8zM86.7 304.2l.4.1.1-1-.5.9zM176.6 269.2v0zM17.5 268.8h.2l-.2-.1zM72.8 287.8c1.8-.1 3.6-.3 5.3-.7l-.8.1-4.5.6zM34.7 215.5l-.6-1c0 .6 0 .7.6 1zM21.7 273zM374.7 287.5l.3-.4-.7-.1.4.5zM367 302l.6-.5c.7-.7 1.2-1.5 1.7-2.3l-.3.3-2 2.5zM127.3 297.7c-.5-.5-1.2-.8-2.2-.8-1.5.2-3.3 1-4.1 2.4 1.7-1.9 4.9-2.6 6.3-1.6zM397.3 304.2c.7-.1 1.2-.4 1.5-1l.1-.3c-.3.5-.9 1-1.6 1.3zM380.7 287.1l.1.3.2-.3h-.3zM398.3 299.4h.4l-.5-.1.1.1zM382.4 296.8zM339.1 316.6h.2l-.1-.2v.2zM185.9 277.4l.8 2.8-.5-2-.3-.8zM140.5 310.9a7 7 0 000 2.7c.2 1.4 1 2.2 1.8 2.7-1.8-1.2-2.2-3.2-1.8-5.4zM361.2 285.4h.5a19.5 19.5 0 01-4.7 6.7 10 10 0 018.2-.4h.5c.2 0 0-.4.4-.9.5-1 .2-2.3.3-3.4-.3-1-.8-2-1.4-2h1a8.9 8.9 0 01-3.6-1.5c-.2 1-.6 1.3-1.2 1.5zM311.3 319c-1 1.6.4 2.7 2 3l-.6-.2c-1.5-.5-1.8-1.7-1.4-2.9zM356.2 292.7l-1.7 1.3c.9 0 1.5-.4 1.7-1.3zM316.3 309.2l.2 1 .4-1h-.6zM284.8 319.7v0zM142.3 306.9l-.2-.2-.4.7c.2-.2.4-.5.6-.5zM160.8 289.8l-.2.3h.2v-.3zM127.1 300.8zM126.7 301.1zM120.8 299.4v.1zM178 285.4zM127.5 300.5l-.2.2.2-.2zM144.3 299.2l-.5-.2h.1l.4.2zM144.6 308.3c.4.2 1 .2 1.6 0l.3-.2c-.6.3-1.3.4-2 .2zM143.3 307.9h.3a4 4 0 01-.6-.3l.3.2zM146.9 308z" fill="none"/><path d="M311 168.5h-.2.2zM287.3 171c.3-1.9.5-2.4 1.4-2.5-.7-.1-.9-.5-1-2.1a6.5 6.5 0 00-1.8-3.6c-2.1-2.4-5-3-8-2.4-.5 0-1 .2-1.4.3 5.5.7 9.5 7.3 8.1 12.5-1.2 4.4-5.5 7.2-9.6 8.6 5.9 2.2 10.6-1.2 12.7-6a4 4 0 01-2 .5c1-1.5 1.3-3.6 1.6-5.3zM303 197c.5-1.8 2.7-3.6 3.5-5.6l1-3.3c.2-1.3-.2-2.6.3-3.8.5-1.2 1.6-2.2 2.1-3.4.5-1.1.6-2.5.6-3.7.2-3.2-.9-6.3-2.9-8.7l1.5-.1c-.8-.1-1.6-.4-2.6-1-1.3-.7-2.4-1.1-4-1.3-3.9-.6-8-.3-11.9 0l.4 2.4v.8c1.8-.1 3.8-.7 5.7-.6 3 .1 5.9.6 8.8 1.5 3.4 1.8 2.2 8.1 1.1 10.9-.7-.8-2.5-1.2-3-1.8-.4-.5-.5-2-.8-2.7-.9-1.5-3-3.4-4.8-3-2 .3-1.7 2.4-.3 3.2 1.4.6 1.8 2.3 1.7 3.7-.2 3.2-3.4 3.1-4 5.6-.4 1.5.6 1.7 1.9 1.6 2.5 0 4.5-2.5 5.6-4.7 1.3 3 2 5.6.7 8.7-.8 2.1-2.6 3.5-3.7 5.4-.7 1.3-.2 2.8-1.2 3.8 1.5-.6 3.1-.4 4.8-1.5.8-.6 1.5-1.3 2.2-2.1l-.7.3c-1.4.1-2.6 2-2-.5z" fill="#c96"/><path d="M286.8 214.3c-2.4 3-6 5.2-8.6 8.2-3.4 4.1-6 8.4-8.6 13-1.2 2.2-2 4.4-3 6.7l-1.4 3.6a1 1 0 01-.6.6h.4a55 55 0 00-.7 39c2.8 7 9.5 12.3 16.2 15.4 13.4 6 30 6 44.3 3.7 7-1 13.4-3.1 19.3-6.9 3.3-2 6.2-4.7 9.3-7.1 1.5-1.2 3.1-2 4-3.5.6-1 1-1.4 1.7-1.6h-.8c6-12.6 7.2-25.9 2-39h.7c-.5-.1-1-.5-1.3-1.3l-1.8-3.3a71.4 71.4 0 00-16.6-18c-4.6-3.5-9.3-6.8-14-10.1-1.5-1.1-6-3.2-6.8-5.1-.4-1 0-1.2.6-1l-.4-.2h.2l-.4-.5c-3-.8-7.1-2.5-5.6-3.7-1.2.2-4.7 1-4.5-.9-1.3.9-3 1.8-3.6-.3-.5 3-7.8 4.7-12 5.2l-.4.2h1.7c-4 1.7-6.8 3.7-9.4 6.9zm33.5 12.8c-1.4 3.3-6.7 3.1-6.5-1 .2-5.1 7.8-4.3 6.5 1zm-22.5-8.3c2.8 1 6.3 3.5 7.1 6.5l.4 2c.5 4-2.6 10.3-6.6 11.5-6.5 1.8-12.3-2.1-15.8-7.4-3.6-5.4-2.2-12.6 5.1-13.7 1.1-.2 2.2-.2 3.4-.2.4 0 .5-1.2.8-1.7a3.8 3.8 0 013.5-1.6c2.5.2 3 2.6 2 4.6zM258 273.3c0 .5.2 1 .6 1.4l-.2-2.4-.4 1zM387.2 193.6l-2.9-3 .2.3 2.7 2.7zM308.5 201.4a8 8 0 00-.3-.2v.4l.3-.2zM413.3 270.4v-.2.2z" fill="#FFB442"/><path d="M294.8 218c-.3-.2-.3-.2 0 0zM413 242.5l-1.6-5c-1.3-3.5-2.5-7.1-4-10.6-3-6.9-6.5-13.2-10.5-19.5h.6l-.2-.3c-1.4-.5-1.9-1.8-3.2-3.5-1.4-1.8-3-3.5-4.7-5a63.7 63.7 0 01-5.3-5.6c-1-1.2-3.3-3.9-4.9-4-1.4 0-3-1.2-4.4-1.5-2-.5-4-.9-6.1-1-2.2-.2-9 1.1-10.5-.5l-.3.1c-1.5 1.5-5.4 6.3-7 4.6-.5.5-2.1 2.3-2.1 2.8 0 1.7-3.9 3.8-5.1 5-2 2-4 4-5.9 6.2-.5.6-1 2-1.4 2.3l-1.1.4h1c-.7.7-1.5 1-2.4 1.3v.1c1.2.5-.2 2.6-1.5 4 0 .5-.4.9-.7 1.3 13 8.4 24.9 18 31.6 32.3a45 45 0 011.3 31l-1 3.3c-.2.5-.3.8-.2 1l.3.2 1 .4c1.5.8 3.3 1.2 4.9 1.5 3.7.8 7.5.7 11.2.6 7-.3 13.6-1.4 19.7-4.8a35.7 35.7 0 008.1-6.2c1-1.2 2.4-3 3.3-2.4.2-.7-.2-2 .3-2.3.8-.5.9 0 1.3-.9.1-.3-.2-1.1 0-1.6.3-1.4 2.2-1 2.4-2.7 1-6 0-11.4-1.6-17.1h.5v-.3c-1-.4-1-1.4-1.8-3.5zm-44.3-28.7c-1.2 1.2-4.3 1-5.4-.4-1.7-2-.2-5.5 2.1-6.2 3.3.2 6.3 4 3.4 6.6zm18 18.3c-3.8 2.5-11.5 1.1-14.4-2.3-4-4.6 2.4-13.6 7.3-14.8 1.7.1 3.5.7 5 1.5 1.3.8 1.6 1.4 2.1 2.3 1.1 1.7 1.5 3.5 2.4 5 1.7 2.7.4 6.6-2.3 8.3zm1.6-19.8c0-4.3 6.4-6 6.6-1.3.3 4.1-6.2 5.6-6.5 1.3z" fill="#FFB442"/><path d="M385.6 230.2c6-2.6-1-13.3-6.2-12.6a10.4 10.4 0 00-5 5.6c-.3 1.4-1 4.6.4 5.6 2.7 1.8 8 2.5 10.8 1.3zM298 236.4c1.5-.7 2.3-2.3 3.3-3.5 1-1.2 1.1-.7 1.6-2.5.3-1.2.6-2.5.3-3.7-.7-.9-.7-1.9-1.4-2.8-.7-1-1.9-1.7-2.9-2.3-2.7-1.6-5.5-1.5-8.5-1-2.7.3-6 .4-7 3.4-.6 2.2.7 5.1 2 6.7 3 3.4 7.7 8.1 12.6 5.7zM328.2 312.9c-2.8-.3-6.4-.6-6-4.3a46 46 0 00-5.3.5l-.4 1c.3 1.2.3 2.2-.3 3.6-1 2.2-3.3 3-4.7 4.9l-.2.3c-.4 1.3-.1 2.4 1.4 2.9l.7.1c.7.2 1.4.1 2 0 .8-.3 2.4-1.2 2.8-2 .6-1.2-.3-2.5 1.2-3.3 2.8-1.5 2 1.7 3 2.8 1 1.4 7 4.8 7 1.4 0-1-1-2-1.8-2.6-.8-.7-4.4-2.3-4.7-3-1-2.8 5.5 1 6.4 1 3-.4 7 1.5 9.8.4l.1-.2c-2.8-3.3-7-3.2-11-3.5zM359.2 300.8v.3l.2-.3h-.2zM362.9 293.1c-1.6 0-4.5-.9-5.7.5a21 21 0 015.7-.5zM366 290.8c-.2.5-.1.8-.3 1 1-.2 1.2-2.6.7-4.4 0 1.1.2 2.4-.3 3.4z" fill="#f60"/><path d="M367.7 286.2l.3 5.5c0 2.5-2.7 1.7-4.2 1.5l.6.3s.7 1.2-.1 1.2h-2.9c-2 .2-4 .5-5.8 1-.9.3-3.5.6-3.6 1.8-.2 2 1 1.5 2.8 1.5 1.7 0 4 .5 5.5 0 1.3-.5 2.5-2 3.7-3 .5-.3 2.9-1.3 3.4-.5.7 1-2.5 2-3 2.3-2 1-6.2 5.2-2.2 5.7 1.7.3 3.4-.5 4.8-1.5.7-.8 1.2-1.7 2-2.5l.3-.3c.7-1.4 1.3-2.8 2.8-4 .5-.4.6-3.6.9-4.5.4-1.1 1-2.2 1.7-3.2l-.4-.5-6.6-.7zM375 289l-.4 1.5c.2-.5.4-1 .4-1.5zM388 289.2c.4.4 2 .3 2.6.4l3.5.4-1.2-.2c-1.2-.3-4.6-.6-4.8-1.8-.2.5-.2.9 0 1.2z" fill="#f60"/><path d="M387.2 286.6l-6.2.5-.2.3c1.7 3 .8 5 1.1 8l.1.4.4 1c1 1.6 2.9 3.1 4.3 4 1.5 1 7.5 4 10.6 3.4.7-.3 1.3-.8 1.6-1.3.5-2.1-3.9-4.4-5.3-5-1.8-.6-5.3-.8-6.6-2.4-1.5-2 4.6-.7 5-.5a21 21 0 016.2 4.3h.5c2.2-.4 10.3 0 6.5-3.3-2.3-2-5.6-2.2-8.5-2.7-1-.2-7.4-1-5.4-2l-4.1-.7c-1-.2-.2-3.3 0-4z" fill="#f60"/><path d="M395.7 291.6c3.7.5 7.3 1.8 10.5 3.6-.2-4-7.8-3.7-10.5-3.6z" fill="#f60"/><path d="M34.6 207.4zM72.8 287.8l4.5-.6h.8l4-1c1.2.6 4.4-.8 6.1-.8h-1c7.5-2.2 17.2-4 21-11.9 1.8-3.8 2.3-9 2-13.3-.3-2.9-.8-5.2-1.7-8-.4-1-1.2-5.4-2.4-5.8h1.1c-.8-.2-1.5-.4-2.2-.8a140.5 140.5 0 01-14.7-13c-3.3-3.5-5.1-7.7-7.7-11.6a55.8 55.8 0 01-6.7-13.6h1.4c-1.7-.1-1.8-.7-2.4-2.8l-1.2-4.8c-.7-3-1-6.2-1-9.3-1 .1-1.6-.7-2.3-1.3-.7-.6-2.5-.2-3.4-.2l-7.5.3c-2 0-2.8 1.9-4.3 2-1 .1-1.8-.3-1.5-1.4-.6.7-3.6 3.3-3.7 3.8-.2 2.8-1.6 2.6-4 4.2a32.7 32.7 0 00-8.4 8c-.7 1-1.1 1.4-1.8 1.5h.9l-.3.5c5.8-.3 1.6 8.7-2.1 5.3l-.2 1.2.6 1.1 1 .6c1 .5 1.7.7 2 1.7.2.8 1.7 1.8 2.2 2.5a9.6 9.6 0 011.5 4.3c.3 2.4-.6 5.2-3.1 5.6a22.4 22.4 0 01-11.7-1c-1.6-.6-2.6 1.5-3.5 2.8a36.3 36.3 0 00-6 13c-.2 1-.4 1.3-.8 1.4h.5c-.5 2.7-.8 5.4-.7 8.2 0 2.3 1 4.8.9 7 0 .6-.5 1.1-.8 1.7-.7 1.8 0 .8.8 1.8 1 1.3.7 2 .5 3.6h.2c1.9.3 2.3 1.9 3.2 3.3l.8 1c2 2 3.5 4 5.8 5.6a48 48 0 0015.6 6.5l3.4 1c8.7.9 17.6 2.4 26.3 1.8zM49.4 212c1.6-1.5 4-2.4 5.8-.2.9 1.1 1 3.2.2 4.4-2.6 3.9-7.5-.4-6-4.1z" fill="#FFB442"/><path d="M26 226.1a19 19 0 004 1.5c2.7.5 7.9 1.7 9.2-1.3 2-4.7-4.4-6-6-9-3.6-1.3-9.5-.6-11.7 3-1 1.6.3 3.3 2.2 4.6l1.4.7 1 .5zM37.7 299.7c1.2-.6 2.5-.7 3.8-.9 1.6-.2 5.8-1.6 6.7-.8l-.2.2c-2 1.1-4 2-6.2 2.6-1.9.5-7 1.5-5.6 4.8 1.4 3.4 6.8.2 8.5-.6 4.5-2 4.2-2.2 7.5.9 1.8 1.6 5 4 7.6 3 2.3-1 1-3.8 0-5.4-1-1.4-2.4-2.6-3.8-3.6-2-1.3-1.7-1.3-2-3.5a9 9 0 01.3-5 4 4 0 00-.2-1 13 13 0 01-3.9-1.3c0 3-1.6 7-5 7.5-3 .4-5.9.7-8.9.7-2.5 0-6-.9-8.3 0-1.6.7-3.8 2.9-1.8 4.3 1.8 1.2 6.7.4 8.8.5.5 0 2-2 2.7-2.4zM34.4 303.9h0zM88.4 302v.3c.5-.1 1-.2 1.6-.6l-1.6.3z" fill="#f60"/><path d="M78 290c-1 0-2 .3-3 .4l-6 .7c.3 2.4.1 4-1 6.1-1.2 2-3 3.3-3.4 5.6-.7 3.5 3.5 3.2 5.3 1 1-1 1.1-2 1.7-3 1.2-2.3 1.8-1.1 3.8.2a29 29 0 008 3.6c.8.2 2-.6 3.3-.4l.5-1c.2-.8.2-1.7-1-2h.6c-.7-1.9-2.4-2-4.1-2.6-.6-.2-6.6-1.9-6.6-2.3 0-1.9 5.1.2 5.8.5 2 .7 4.2 1 5.6 3.3.9 1.3 3.7 0 3.4-1.5-.4-1.8-3.9-2-5.3-2.5-3.3-1.2-9-2-7.6-6.2z" fill="#f60"/><path d="M82.1 293.4l2.7.8c-2.2-.8-5-1.3-5.5-3.4l-.2-.3c-.2 1.4 2 2.4 3 2.9z" fill="#f60"/><path d="M274.7 216h.4c5.4-6.2 11.6-15.2 8.7-22.8l-.2-1.1a8.6 8.6 0 00-2.8-2.2l-1.1.2c4.2 6.3 1.3 13.3-3 18.6l-2.3 2.4c-.7.5-2.5 1.2-3 1.9l-.2.6 1 2.3a4 4 0 002.5.2z" fill="#c96"/><path d="M230 285.4h4-4zM202.2 285.4h.6c-3.5-1.7-2.7-15.5-3-18.3-2 1.1-4 2-6.4 2.7-2.6.7-7 1.7-9.6.8l2 6.8.4.9.5 2 1.6 5.1c.5 1.5 1.3 3 1.9 4 .5.8 1 .7.3 2-1 1.8-1 4.2 0 6.1.6 1.3.7 2.2 1.2 3.2.8 1.4 2.3 2.7 3.3 4 2 2.4 3.6 5.2 5.7 7.5 2.3 2.6 6.4 6 10 4.5 5.6-2.1-1.6-10.5-3.4-13.2 1.5 1.7 3.9.6 6 .8 3.4.3 5.6 2.6 8.6 3.6 3.9 1.2 7.8 2 11.9 2.3 4.5.4 14 1.7 15.5-4.3.8-3-.3-4.7-3-5.4A156.9 156.9 0 00222 296c-3.6-.4-6-1.1-9.5-1.9 6.7.2 13.3-.1 19.9.9 2 .3 2.6.5 4.4-.3l4.6-1.6c2.4-.8-3-5.7-3.8-6.2-5.2-2.7-12 .3-17.5.9-3 .3-7 1.3-10 .9-1.6-.3-3-.6-4.6-.7-2.2-.3-2.4-.7-3.3-2.7zM203.7 285.5h-.1.1zM284.9 320.7c0 .3.3.6.7.9 1.3 1.1 5-.2 6.3-1 1.6-1.1 2-2.9 3.4-4 .5-.5 1.2 0 1.4 0 .5-.4 2.4-2 2.4-2.5 0-1.5-1.4-2.6-1.3-4.5.3-.2.5-.6.8-1l-6-1c.5 2.2.3 4-2 4-2.6.1-5.3.8-7.7 1.8-1.3.5-5.7 2.3-4.9 4.4.7 1.8 4.2.5 5.2.6.8-2.3 3.5-3.8 5.7-4.4 2-.5 4.9-.7 2.1 1.2-1.2.8-5.8 2.5-6.3 4.5h.1v1zM277.8 312.3c-1.1.7-4.2 2.8-1.4 3.7.9-2.4 2.9-3.6 5.2-4.3-1.2 0-3-.5-3.8.6zM145.5 317.3h-.6.6z" fill="#f60"/><path d="M179.2 289.7c-.5-1.4-1.2-3-1.9-4.3h.7c-1.7-.8-1.8-5-1.9-6.8a28.7 28.7 0 01.4-9.4c-.6.2-1.1 0-1.8 0-1.3 0-2.6.3-4 .4-3.3.1-6.5-.2-9.7-1.1a60.2 60.2 0 011 14c0 1 .2 2.4-.5 2.9h.3c-.3 2-.4 3.4-1 4.4v.3h-.3c-.6.7-1.6 1-3.3.9-4.4-.3-8.2 0-12.5.2-7 .3-15.3-.4-21 4.2a9.2 9.2 0 00-2.9 4v.1a6.6 6.6 0 00-.2 3.8c.6 2.3 4.7 3 6.6 3.3 7 .7 12.5-3.1 18.9-4.9a18 18 0 00-4 5l.2.2c-.2 0-.4.2-.6.5a15.3 15.3 0 00-1.1 3.2l-.1.3c-.4 2.2 0 4.2 1.8 5.4 2.2 1.1 5.7 0 7.7-.8 3.4-1.4 6.1-4.3 8.2-7.3.9-1.3 5.2-9.8 6.9-6.8.8-.2-.1 3.3-.3 4.3-.5 4.7.3 14.8 6.6 15.4 3.9.3 5.7-2.8 5.5-6.2-.2-4.2-.2-8.4-.2-12.6 0-1.6 0-3.5.6-4.7.2-.6 1-1.7 1.3-2.4 1.1-2.3 1.4-3 .6-5.5zm-58.2 9.6c.8-1.4 2.6-2.2 4.1-2.4 1 0 1.7.3 2.2.8-1.4-1-4.6-.3-6.3 1.6zm23-.2l-.2-.1.5.2-.4-.1zm-.7 8.7l-.3-.2.6.3h-.3zm3 .5c-.8.2-1.2.2-1.7 0a3 3 0 002-.2l-.4.2zm18.2-36.3c0-.2-.3-.4-.4-.5h.5v.5z" fill="#FF6500"/><path d="M311.8 148.9c1.4-6.5 1.6-12.9.5-19.4-.6-2.9-2.2-5.8-1.3-8.4 1-2.6 1.1-5.2 1.1-7.9 0-3.2-.6-6.6-2-9.4-.8-1.5-3-6.2-4.8-6.1 0-2.4-.2-4.9-.7-7.2-.5-2-1.3-4-2.6-5.7-.5-.6-2-1.4-2.2-2-.3-.7.3-2.5.3-3.3.3-3.9 0-9.2-3.3-11.9-4.2-3.3-10-.7-14.3.8a85.5 85.5 0 00-30.8 22h.2l-.2.2a69 69 0 00-3.2 3.7c-1 1.3-3.5 6.5-5 6.4l-3 7.9c.5-3.5 5.5-6 7.6-8.9 2.3-3.3 5.2-6.2 8-9.2.9-.5 1.8-2 2.6-2.8a68.9 68.9 0 0121.7-15c3.5-1.5 9.9-5.5 13.7-3.2 3.4 2 3.4 8.5 3 12-1.1-.5-3-.9-3.8.2 2.4.8 4.3 2.5 6 4.4L301 89c.9 1.2 1 1.4 2 1.5h-1.3a27 27 0 011 16.6c1.9-.6 2-5 2.3-6.6 4.5 4 4 12.8 3.8 18.1-.2-.6-1.6-3.8-2.4-3.9-2-.1-.5 4-.3 4.8.6 2.1 1.5 4.1 2.1 6.2l1 3.5.3.3h-.3c.8 3.3 1 6.8 1 10.2-.2 3.3-1.4 6.1-1.7 9.3-.3 3.6 2 7.5 3 11 .6 1.9 1 3.8 1.2 5.7.5 2.7.3 2.8 3.2 2.8-.5-3.5-1.2-6.9-2-10.2-.8-3-3-6.2-2.2-9.4zM239 106z"/><path d="M306.8 202c.5 2 2.3 1.2 3.6.3-.2 2 3.3 1.1 4.5 1-1.5 1 2.7 2.8 5.6 3.6l2.5.5a55.2 55.2 0 00-5-3.3c-2-1-1.3-1-.8-2.6a42 42 0 001.7-10.1c.2-4 .4-8.9-1-12.6-.5-1.5-1-2-1.2-3.6-.1-2.3-.4-4.5-.6-6.8h-2.8l.5 5.6c-.4-1.6-.9-3.2-1.7-4.6a2 2 0 00-1.1-.9h-.2.7c-2.3-4.3-8.3-6-12.8-6-2.9 0-5.8.3-8.4 1.7 0 0-4.1-4.5-5.1-5.1-4.7-2.6-11.2-.5-15.8 1-6 2.2-11.5 5-16.8 8.3l-.2.1-4.7 2.6c-1.5 1-8.3 5.2-8 7.2.3 2 7-3.4 7.9-4l10-5.9h-.7c.6 0 1.3-.3 2-.6a78.5 78.5 0 0119-7.4c3-.6 5.9 0 8 2.4 1 1 1.6 2.2 1.7 3.6.2 1.6.4 2 1.1 2-.9.2-1 .7-1.4 2.5-.3 1.8-.6 3.9-1.6 5.4.8 0 1.5-.1 2-.4 2.1-1.2 3-4 3.2-6.6l.1-.9c0-.8-.2-1.5-.4-2.3 4-.3 8-.6 12 0 1.5.2 2.6.6 4 1.4 1 .5 1.7.8 2.5.9h-1.5c2 2.5 3 5.6 3 8.8-.1 1.2-.2 2.6-.7 3.7-.5 1.2-1.6 2.2-2.1 3.4-.5 1.2-.1 2.5-.4 3.8-.2 1.1-.6 2.2-1 3.3-.7 2-2.9 3.8-3.3 5.7-.7 2.5.5.6 1.9.5l.7-.3c1.7-1.2 3.3-5.3 3.8-6.6.3-1.2.3-2.5.7-3.6.4-1 1.2-1.6 1.8-2.6a20 20 0 001.9-5.7c.1 2.3 1.6 4.7 1.7 6.7 0 2.5 0 5.3-.8 7.8-.6 1.5-1.3 2.9-2.2 4.2-.5.7-1.1 1.9-1.6 2.4-.4.5 0 .6-1.1 1-.5 0-1 .3-1.4.5 0 0-.2 0-.3.2v-.4c.4-4-3.3 1-4.6 1.6-3.6 1.7-7.7 2.5-11.1 4.6.5 0 1.3 0 2.2-.2 4.3-.5 11.6-2.2 12-5.2zm5.9.1s0 .3 0 0zM396.9 207.4c4 6.3 7.5 12.6 10.5 19.5 1.5 3.5 2.7 7 4 10.7l1.6 5c.7 2 .7 3 1.7 3.5.4.2 1 .3 2 .3a137.6 137.6 0 00-17.4-39h-2.4z"/><path d="M418.7 255.4c-.1-2-.6-3.9-1.1-5.8-.6-2.5-.5-3.1-2.8-3.2h-.5a38.2 38.2 0 011.6 17.1c-.2 1.6-2.1 1.3-2.5 2.7-.1.5.2 1.3 0 1.7-.3.7-.4.3-1.2.8-.5.4-.1 1.6-.3 2.3-1-.7-2.3 1.2-3.3 2.4l-.7.8-2 1.6a35.7 35.7 0 01-5.4 3.8 43.1 43.1 0 01-19.7 4.8c-3.7.1-7.5.2-11.2-.6-1.6-.3-3.4-.7-4.9-1.4l-1-.5c-.2 0-.3 0-.3-.2l.2-1 1-3.3a45 45 0 00-1.3-31c-6.7-14.2-18.7-23.9-31.6-32.3l-.4-.3a9 9 0 001.1-1c1.3-1.4 2.7-3.5 1.5-4h-.1.1c1-.3 1.7-.7 2.3-1.4h-1c.5 0 .9-.2 1.2-.4.3-.3 1-1.7 1.4-2.3 1.8-2.2 3.9-4.1 5.9-6.1 1.2-1.3 5.1-3.4 5.1-5.1 0-.5 1.6-2.3 2-2.8 1.7 1.7 5.6-3 7-4.6l.3-.3.1.2c1.5 1.6 8.3.3 10.5.5 2 .1 4 .5 6.1 1 1.5.3 3 1.4 4.4 1.5 1.6.2 3.9 2.8 4.9 4 1.6 2 3.4 3.8 5.3 5.6 1.7 1.5 3.3 3.2 4.7 5 1.3 1.7 1.8 3 3.2 3.5.5.2 1.1.3 2 .3-3.7-5-7.8-9.4-12-13.8l-2.8-2.7-.2-.2c-2.5-3.4-7.5-5-11.5-5.8-2.4-.5-4.8-.7-7.3-.6-1.9.1-4.9 1.4-6.4 0 .5-.3.7-.9 1.1-1.2-.4.2-.8.3-1.3.8-1-1.3-1.2.6-1.9 1.1l-4.4 3.1c-1.2.7-2-.6-3.3.6-.7.7 0 2.5-1.3 1.4-1.9-1.5-1.2 2-1.1 2.6.2 1.8-3.2 3.5-4.6 4.7-3.3 3-5.5 8.2-9.4 10h.9c-.7.1-1.4.3-2.1.7-1 .6-1 1.4.2 1.8-1.3.2-2.3 1.5-.8 2.2-1.2 1.9-3.7-.8-5.2-1.7-1.2-.7-2.3-1.2-2.5-2.7-.7-.4-1.6-.3-2.5-.3h-.2l.4.2c.8.4 1.7.8 2.4 1.4-.6-.3-1.6-1-2.4-1.3-.6-.3-1-.2-.6.9.7 2 5.3 4 6.8 5 4.7 3.4 9.4 6.7 14 10.2a71.5 71.5 0 0118.4 21.3c.4.8.8 1.2 1.3 1.3h-.7c5.2 13.1 4 26.4-2 39h.8c-.6.2-1.1.6-1.7 1.6-.9 1.5-2.5 2.3-4 3.5-3 2.4-6 5-9.3 7.1-6 3.8-12.4 5.8-19.3 7a79.5 79.5 0 01-44.3-3.8c-6.7-3.1-13.4-8.5-16.2-15.4a55 55 0 01.7-39h-.4c.3-.1.5-.3.6-.6l1.4-3.6a86 86 0 0111.7-19.6c2.5-3.1 6-5.3 8.5-8.3a22 22 0 019.3-6.9h-1.7c-1.6 0-2.9.3-4.4 1.5-2.2 1.5-3.8 3.2-5.7 5-3 2.7-6.2 5-9 8.1a52.8 52.8 0 00-6 8.4l.6-1c1.5-3.4 1.4-8.5 4.4-10.4 3-2 5.3-4.7 7.2-7.5 2.2-3.2 4.6-6.7 5.2-10.5.4-2.2.1-4.4-.8-6.5-.5-1-2-3.3-2.3-2.4 0 .2 0 .6.2 1.1 2.9 7.6-3.3 16.6-8.7 22.7l-2.5 2.8c-.1-1.1-.2-2-.5-2.8-.2-.8-.5-1.5-1-2.3v-.2c-.6-1 3.6-6.7 4.2-7.7-1.6 1.7-7.4 5.8-7.4 8 0 1 1.8 1.9 2.1 3 .4 1.3 0 2.7-.4 4-1.3 5-3.9 12.7-8.7 15.4-5.2 3-14.3.4-19.4-1.7-3.6-1.5-7-3.9-10.2-6-3.3-2-7-3.2-10.4-5 1 2.4 5.8 4.1 8 5.5 3.1 2 5.8 4.4 9 6.4 6 3.9 13.8 6.6 21 4.4 4.6-1.3 7.5-4.2 9.7-8a88.2 88.2 0 00-6.3 14.7h.4a1 1 0 00-.6.7l-1.1 3.6c-.9-.5-1.4 1.4-2.4 1.8l-2.9.7c-3.8.8-7.5 1.6-11.3 2.2-8 1.2-16 1.9-24 2.7-7.9.8-15.7 2.1-23.7 2.8-7.4.6-15 .5-22.4.6-4.9 0-9.7-.5-14.5-1.3l-11-1.9-3.2-.5c-.7-.1-1.6.5-2.3.5-3.2 0-6.9-1.5-10-2.3-5-1.3-9.7-3.9-14.5-6.2l-6.1-3.3-.3-.1c-7.8-5-14.8-11-21.2-17.7-3.2-3.5-5.4-7-7.7-11l-3.5-6.2c-.5-.8-.8-1.7-1.2-2.6-.4-1.2-.7-1.4-1.3-1.5h.8a72 72 0 01.3-39c-3 0-3-.3-3.7 2.6-.4 1.8-1 3.5-1.2 5.3-.6 4-1 8-1 12-2.3-1.5-6-1.6-8.7-1.4-1.6.1-3.1.7-4.7 1-.2 0-.6-.8-.8-.7-.3 0-.6.4-1 .5-.6.2-1.5 1-2.2 1.2.7-3-1.7-1.6-2.9-.4-.6.7-1.5 3.5-2.3 3-.6-.3-1.4-1.7-2.2-.9-.9.9 1 2.8.3 3.9-.1.3-2.2 1-2.7 1.2l-3 1.9a26.2 26.2 0 00-8.7 9.8h.8c-.8.2-1.2.6-1.7 2-.5 1.8-.9 3.5-1 5.3-4.1-.8-9.5.2-12.2 3.6-3.5 4.6 1.2 8 5 10.1-5.4 4.7-9 10.8-10.1 18h.5c-.4.1-.7.4-.8 1.3A32.6 32.6 0 0015 260c.3 1.1-1 5-1.7 6.1-.9 1.5 1.2 2.8 2.3 1.7-.3 1.6.9 5.2 3 4 .5 3.6 6.4 8.2 9.2 9.8a40.4 40.4 0 009.4 3.8h-.8l7.6 2.3c1.1.4 2.3.6 3.5.9 1.8.4 1.3 1.3.8 3-.8 2.6-1.6 3-4 3.4-2.5.4-5 .7-7.5.7-4 .1-12-2-12.9 3.8-.7 5 7.4 4.5 10.6 4.4h.2c-1.5 2.9 2.1 4.7 4.6 4.6 1.7-.1 3.4-1 5-1.6 1.3-.5 3.3-2 4.6-1.9 1.3.2 2.6 2.4 3.8 3.2 1 .8 2.6 1.8 3.7 2.2 2.6 1 5.2 0 5.8-2.8.6-2.6-1.2-5-3-7-1-1-2-2-3.2-2.8-.5-.4-.2-2.7-.4-3.5-.2-.5 1-3.6 1.4-3.6 3.6.3 7 .5 10.7.5-.1 2.6-.5 3.4-1.8 5.6-1 1.8-2.5 3.3-3 5.1-.7 2.7.2 4.8 3.2 5 2.9.2 5.5-1.4 6.5-4.2.8-2 3.6 1 5 1.7a16 16 0 007.5 1.7l-.2-.6c3.3.3 4.3.2 3.6-3.2v-.3l1.6-.3c1.4-.7 2.9-2 2-3.5-1.6-3-4.4-3.3-7.2-4l-2.7-.8c-1-.5-3.2-1.5-3-3 0-.2.2-.5.5-.8.8-.8 5.2-1 6.2-1.2 4-.9 8.1-1.8 12-3h-1.5c2.1 0 3.7-1 5.5-2 3-1.7 5.6-3.8 7.5-6.7 5.2-7.9 3.8-18.8 1.2-27.4a118 118 0 0042 15l4.4.3c1.8.1 1.7 1 2.2 2.8 1.5 6 1.9 11.9 1.3 18h.3c-.7.5-.6 2.1-.8 3.1 0 .5-3.5-.1-4.4 0-4.1.2-8.3.4-12.4.8-5.8.4-15-.2-19.6 4-3.7 3.4-8.2 9.8-2.9 14.2 4.8 4 15.8-.2 21.1-1-2.6 3-4.8 7-2.3 10.5 1.8 2.6 6.2 3 9.3 1.8 3.2-1.2 6-1.9 8.5-4.4 1.7-1.7 3.3-6.4 5.4-7.1 0 5.4.3 10.7 5.5 14 4 2.4 9.1 1.7 10.2-3.4 1.2-6-1.2-12.5.6-18.4.6-2.1 2-4.4 2.6-6.7.6-2.4-1.6-5.3-2.5-7.4-2.7-6.3-.5-14.1-.4-20.6h2c-.4 3.3 2.6 7.2 3.4 10.4.5 2 1 4 1.2 6.1.3 1.6.5 3.7 2 4h-.8c.6 1.7 1.4 3.1 1.7 4.8.5 3-.7 5.4.6 8.3 1.2 2.7 3.7 5.2 5.5 7.8 2 2.8 3.6 5.9 6 8.4 2 2.2 9.1 6.7 12.4 4 1-.8 1.7-1.5 2.2-2.8 1.3-3-1-6-2.9-8.4 1.4.2 2.9-.1 4.1.2 1.3.3 2.8 1.3 4 1.8 2.8 1.2 5.9 2 8.8 2.5 4.5.9 12.6 2.4 16.8 0 3.4-2 7-3.9 6.2-8.5-1-5.4-8.1-5.8-12.5-7 3-.6 5.3-2 4.8-5.3-.3-2-1.9-3.6-3.3-4.8-.7-.5-1.4-.8-2.1-1h.7c-5.4-3.6-12.4-1.1-18.3 0H234l-4.1.1c-4.8 0-9.4.1-14.2.7-2.8.4-5.6.6-8.4.8-.7 0-1.8.3-2.4 0-.7-.4-.8-1-1.2-1.4h-.1l.3-.1c-1.4-3.6-2.1-7-2.3-11-.1-1.5-.8-10.4.6-10.5 8.4-1.1 16.7-2.6 25.2-3.3 4-.3 8.2 0 12-1.3 3.5-1.2 7.5-1 11-2 2.3-.5 6.8-3 9-2.2.6.2-1 9.3-1.1 10.9a46.4 46.4 0 00.7 11.7c.3 1.9.8 3.7 1.4 5.5.5 1.8 1 2.1 2.3 2.2h-1.4a29.6 29.6 0 0013.7 15c3 1.3 5.8 3.5 9 4.8 2.8 1.3 5.8 1 6.9 4.3-1.6.1-3.2.2-4.7.6-1.5.4-3-.2-4.5-.3-3-.2-6.2.5-7.7 3.5-1.4 2.6 1.5 3.8 2.4 5.7 1.3 2.4 4.7 2.2 6.8 1-.5 3.3 3.9 3.8 6.3 3.5a9 9 0 005.5-3.3c1.7-2 3.7-3 5.7-4.8.9-.7.2-3-.2-3.8-.7-1.4-.4-1.4-.1-2.8a49 49 0 0011 .7c2 0 3-.8 3.4 1.2.6 3.6-5.3 4.9-5.6 9-.6 6.6 9.5 5 11 0 1.8 2.4 5 5.3 8.3 4.4 3-.9 3.6-4 1.6-6.2 2.1.8 10 2.8 11-.4 1.2-4.4-7.1-6-9.9-6.5-2-.4-7 .6-7-2.2 0-.6 7.5-2 8.8-2.3a64.6 64.6 0 0015.5-7.8l2-1.5c-.3 1.1 0 3.5 1.2 3.5h7.7l-.2.4c-2.4 3.3 3.6 4 5.7 3.5 2.8-.7 4.6-2.8 5.8-5.3.8-1.8 3.8-3.2 3.7-4.9a22.2 22.2 0 01.6-5.4c.4-1 1-1.9 2-1.9 2.9 0 3 4.3 3 6.8 0 2-.4 2.8 1 4.5a19 19 0 004.5 4.2c3 2 6.3 3.3 10 3.3 2.8 0 5.9-2 4-5.1l-.4-.6c2.3.3 6.7.8 8-1.7 1.2-2.3.5-5.6-2-6.7-2-1-5-.9-7.2-1.2l-3.8-.6-3.5-.4c-.6 0-2.2 0-2.5-.4-.2-.3-.2-.7 0-1.2.2-.7.8-1.5 1-1.7.9-.6 3.4-.7 4.6-1 3.3 0 8.5-3.2 11-5.2 2.9-2.2 4.5-5 6.8-7.6 1.3 2.5 1.8-.7 1.7-2v-.3.2c.3.8 1 1.6 1.8 1.2 1-.4.6-2.6.3-3.4-.1-.5 2.2-2.8 2.4-3.7.8-3.2 1.2-5.9 1-9.1zm-176-20.3c.4 0 .7.4 1 .6l-1-.6zM23.6 225c-1.9-1.3-3.2-3-2.2-4.7 2.2-3.5 8.1-4.2 11.6-2.8 1.7 2.8 8.1 4.2 6.1 8.9-1.3 3-6.5 1.8-9.1 1.3a18.9 18.9 0 01-6.4-2.7zm16.5 60.6l3.8-.1-1-.3a47.9 47.9 0 01-15.5-6.5c-2.3-1.6-3.8-3.6-5.8-5.6l-.8-1c-.9-1.4-1.3-3-3.2-3.2h-.2v-.1c.2-1.6.4-2.3-.5-3.6-.8-1-1.5 0-.8-1.8.3-.6.7-1 .8-1.7.2-2.2-.8-4.7-.9-7 0-2.8.2-5.5.7-8.2h-.6c.5-.1.7-.4 1-1.4a33.7 33.7 0 016-13c.8-1.3 1.8-3.4 3.4-2.8a22 22 0 0011.7 1c2.5-.4 3.4-3.2 3.1-5.6a9.6 9.6 0 00-1.5-4.3c-.5-.7-2-1.7-2.2-2.5-.3-1-1-1.2-2-1.7l-1-.6c-.5-.3-.7-.4-.6-1 0-.3 0-.7.2-1.3 3.7 3.4 7.9-5.6 2-5.3l.4-.5h-.9c.7 0 1.1-.4 1.8-1.5s1.6-2.2 2.5-3.2c1.8-1.8 3.8-3.5 6-4.8 2.3-1.6 3.7-1.4 4-4.2 0-.5 3-3 3.6-3.8-.3 1 .4 1.6 1.5 1.4 1.5-.1 2.3-2 4.3-2l7.5-.3c.9 0 2.7-.4 3.4.2.7.6 1.4 1.4 2.3 1.3a49.3 49.3 0 002.2 14.1c.6 2.1.7 2.7 2.4 2.8H76c1.4 4.8 4 9.4 6.7 13.6 2.6 4 4.4 8.1 7.7 11.6a140.7 140.7 0 0014.7 13c.7.4 1.4.6 2.2.7H106c1.2.5 2 4.8 2.4 6 1 2.7 1.4 5 1.7 8 .3 4.2-.2 9.4-2 13.2-3.8 7.8-13.5 9.7-21 11.9h1c-1.7 0-5 1.5-6.1.8a39.9 39.9 0 01-9.3 1.6c-8.7.7-17.6-.8-26.3-1.8a94 94 0 00-6.3-.5zm-14 16c-2-1.3.2-3.5 1.8-4.2 2.3-.9 5.8 0 8.3 0 3 0 6-.3 9-.7 3.3-.5 4.9-4.6 5-7.5a13 13 0 004.5 1.4l-.5.8a9.1 9.1 0 00-.3 5c.3 2.3 0 2.3 2 3.6 1.4 1 2.7 2.2 3.7 3.6 1.1 1.6 2.4 4.3 0 5.3-2.5 1.1-5.7-1.3-7.5-3-3.3-3-3-2.8-7.5-.8-1.7.8-7 4-8.5.6-1.4-3.3 3.7-4.3 5.6-4.8a26 26 0 006.4-2.8c-1-.8-5.1.6-6.7.8-1.3.2-2.6.3-3.8 1-.7.3-2.2 2.3-2.7 2.3-2 0-7 .7-8.8-.5zm59.4-5.4c1.4.4 4.9.7 5.3 2.5.3 1.4-2.5 2.8-3.4 1.4-1.4-2.1-3.5-2.5-5.6-3.2-.7-.3-5.8-2.4-5.8-.5 0 .4 6 2.1 6.6 2.3 1.7.6 3.4.7 4.1 2.6h-.5c1 .3 1 1.2 1 2l-.2 1.1-.4-.1c-1.2-.2-2.5.6-3.2.4a29 29 0 01-8.1-3.6c-2-1.3-2.6-2.5-3.8-.3-.6 1.1-.8 2.2-1.7 3.2-1.8 2-6 2.4-5.3-1.1.4-2.3 2.2-3.7 3.3-5.6 1.2-2 1.4-3.7 1-6.1l6-.7 3-.5c-1.3 4.2 4.4 5 7.7 6.2zm54.8 17.5a7 7 0 01.1-2.7v-.3a12.6 12.6 0 011.2-3.2 20.5 20.5 0 014.4-5.7c-6.4 1.8-12 5.6-19 4.9-1.8-.2-6-1-6.5-3.3a6.6 6.6 0 01.2-3.9c.6-1.5 1.6-3 2.9-4 5.7-4.6 14-3.9 21-4.2 4.3-.2 8.1-.5 12.5-.2 1.7 0 2.7-.2 3.3-.9.2 0 .2-.2.3-.3.7-1 .7-2.5 1-4.4h-.3c.7-.5.4-2 .5-3v-4.8c0-3-.5-6.1-1-9.1 3.2.9 6.4 1.2 9.8 1l3.9-.3c.7 0 1.2.2 1.8 0h.1v.2c-.8 3-.7 6-.5 9.2.1 1.7.2 6 2 6.7h-.8l1.9 4.4c.8 2.4.5 3.2-.6 5.5l-1.3 2.3c-.6 1.3-.6 3.1-.6 4.8 0 4.2 0 8.4.2 12.5.2 3.5-1.6 6.6-5.5 6.3-6.3-.6-7-10.8-6.6-15.4.2-1 1-4.5.3-4.3-1.7-3-6 5.5-7 6.8-2 3-4.7 5.9-8 7.3-2.1.9-5.6 2-7.8.8-1-.5-1.6-1.3-1.9-2.7zm4.5 3.6l.6.1h-.6zm60.7-29.1c1.5.1 3 .4 4.5.7 3 .4 7.1-.6 10.1-1 5.5-.5 12.3-3.5 17.5-.8.8.5 6.2 5.4 3.8 6.2l-4.6 1.6c-1.8.8-2.4.6-4.4.3-6.6-1-13.2-.7-19.9-1 3.5.9 5.9 1.6 9.5 2a188.3 188.3 0 0124.1 4.4c2.8.7 4 2.4 3.1 5.4-1.6 6-11 4.7-15.5 4.3-4-.3-8-1.1-11.9-2.4-3-1-5.2-3.2-8.6-3.5-2.1-.2-4.5.9-6-.8 1.8 2.7 9 11.1 3.5 13.2-3.7 1.4-7.8-2-10.1-4.5-2.1-2.3-3.8-5.1-5.7-7.5-1-1.3-2.5-2.6-3.3-4-.5-1-.6-2-1.2-3.2-1-2-1-4.3 0-6 .7-1.4.2-1.3-.3-2.1-.6-1-1.4-2.5-2-4l-1.5-5.2-.8-2.8-2.1-6.8c2.6 1 7-.1 9.6-.8 2.3-.7 4.4-1.6 6.5-2.7.2 2.8-.6 16.6 2.9 18.2l-.6.1c1 2 1.1 2.4 3.4 2.7zm160.5-2.7H365c.6 0 1.1 1 1.4 2 .5 1.8.4 4.2-.7 4.4a1 1 0 01-.5 0 10 10 0 00-8.2.3c2.3-2 3.3-4 4.7-6.7h-.5c.6-.2 1-.6 1.2-1.5 1 .8 2.3 1.2 3.7 1.5zm-9.9 7.3c-.2.9-.8 1.4-1.7 1.3l1.7-1.3zm6.7.4c-1.9-.1-3.9 0-5.7.5 1.2-1.4 4.1-.6 5.7-.5zM276.4 316c-2.8-1 .3-3 1.4-3.7.7-1 2.6-.6 3.8-.6-2.3.7-4.3 2-5.2 4.3zm8.3 3.7c.5-2 5-3.7 6.3-4.5 2.8-1.9-.1-1.7-2-1.2-2.3.6-5 2-5.8 4.4-1-.1-4.5 1.2-5.2-.6-.8-2.1 3.6-4 5-4.4 2.3-1 5-1.7 7.7-1.7 2.2 0 2.4-2 2-4l5.9 1-.8 1c-.1 1.8 1.3 2.8 1.3 4.4 0 .5-1.9 2.1-2.4 2.4-.2.2-.9-.4-1.4 0-1.4 1.2-1.8 3-3.4 4-1.3 1-5 2.2-6.3 1-.4-.2-.6-.5-.7-.8-.2-.4-.2-.7-.2-1zm54.4-3.1c-2.8 1.1-6.7-.8-9.8-.5-.9.1-7.4-3.7-6.4-1 .3.8 4 2.4 4.7 3 .8.7 1.8 1.6 1.8 2.7 0 3.4-6 0-7-1.4-1-1.1-.2-4.3-3-2.8-1.5.8-.6 2-1.2 3.3-.4.8-2 1.7-2.7 2-.7.1-1.4.2-2.1 0-1.7-.2-3-1.3-2.1-3l.2-.3c1.4-2 3.7-2.7 4.7-5 .7-1.3.6-2.3.3-3.5l-.2-.9h.7a46 46 0 015.3-.6c-.5 3.7 3 4 6 4.3 3.9.3 8.1.2 10.9 3.5l.1.1h-.2zm35.6-29.1c-.8 1-1.3 2.1-1.7 3.2-.3 1-.4 4.1-1 4.5-1.4 1.2-2 2.6-2.7 4a8.5 8.5 0 01-2.3 2.8c-1.4 1-3 1.8-4.8 1.5-4-.5.2-4.7 2.1-5.7.6-.3 3.8-1.4 3.2-2.3-.6-.8-3 .2-3.5.6-1.2.9-2.4 2.4-3.7 2.9-1.5.5-3.8 0-5.5 0-1.7 0-3 .5-2.8-1.5.1-1.2 2.7-1.5 3.6-1.8a32 32 0 018.7-1c.8 0 0-1.2.1-1.2l-.5-.3c1.4.2 4 1 4-1.5 0-1.8 0-3.6-.2-5.5l6.6.8h.7c0 .2-.2.3-.3.5zm31.5 7.7c-3.2-1.7-6.8-3.1-10.5-3.6 2.7 0 10.3-.4 10.5 3.6zm-14.8-3.9c-2 1 4.3 1.9 5.3 2 2.9.5 6.2.7 8.5 2.7 3.8 3.3-4.3 2.9-6.5 3.3a2 2 0 00-.4.1 21 21 0 00-6.3-4.4c-.4-.2-6.5-1.4-5 .5 1.3 1.6 4.8 1.8 6.6 2.5 1.4.5 5.8 2.8 5.3 4.9v.2c-.4.7-1 1-1.6 1.1-3 .7-9.1-2.3-10.6-3.3-1.4-1-3.4-2.5-4.3-4.1a4 4 0 01-.4-1v-.4c-.4-3 .5-5-1.2-8l-.1-.3h.3l6.2-.5c-.2.7-1 3.8 0 4l4.2.7z"/><path d="M388.4 212.3c.3 4.3 6.8 2.8 6.6-1.3-.3-4.6-6.8-3-6.6 1.3zM365.4 207.2c-2.3.7-3.8 4.2-2.1 6.2 1.1 1.5 4.1 1.6 5.4.4 3-2.6 0-6.5-3.3-6.6zM386.7 218.8c-.5-.9-.8-1.5-2.1-2.3-1.6-.8-3.3-1.4-5-1.5-5 1.2-11.3 10.2-7.3 14.8 2.9 3.4 10.6 4.8 14.5 2.3 2.7-1.7 4-5.6 2.3-8.3-1-1.5-1.3-3.3-2.4-5zm-12.2 4.4c.8-2.5 2.7-4.3 4.9-5.6 5.2-.7 12.3 10 6.2 12.5-2.9 1.3-8 .5-10.8-1.3-1.4-1-.7-4.2-.3-5.6zM320.3 227c1.3-5.2-6.3-6-6.5-.9-.2 4.1 5.1 4.3 6.5 1zM292.2 215.8c-.3.5-.4 1.8-.8 1.7-1.2 0-2.3 0-3.4.2-7.3 1.1-8.7 8.3-5.1 13.7 3.5 5.3 9.3 9.2 15.8 7.4 4-1.2 7.1-7.6 6.6-11.5 0-.7-.2-1.3-.3-2-.9-3-4.4-5.4-7.2-6.5.9-2 .4-4.4-2.1-4.6-1.4-.1-2.8.5-3.5 1.6zm-8.8 8.2c1-3 4.3-3.1 7-3.5 3-.4 5.8-.5 8.5 1.1 1 .6 2.2 1.3 2.9 2.3.7.9.7 2 1.4 2.8.3 1.2 0 2.5-.3 3.7-.5 1.8-.6 1.3-1.6 2.5s-1.8 2.8-3.3 3.5c-4.9 2.4-9.6-2.3-12.6-5.7-1.3-1.6-2.6-4.5-2-6.7zm11.4-6c-.3-.2-.3-.2 0 0zM55.4 216.3c.8-1.3.7-3.4-.2-4.5-1.7-2.2-4.2-1.3-5.8.3-1.5 3.7 3.4 8 6 4.1zM164.6 272v-.5h-.5l.4.5z"/><path fill="none" d="M78 142.2v-.2c0-.5.1-1 .3-1.3l-.2 1.5zM84.7 77.4l.3.6-.6.4.3-1zM81.9 90.5h0zM219 110.5l.4 1 1.2 2.9c-.8-1.2-1.6-2.5-1.6-3.5v-.4zM197.6 151.6v.1zM88.5 128.8c0 1.5 0 3.1.2 4.7l-.4-2c-.2-1.3-.2-2 .2-2.7zM162.7 38.6l1-1.8c-.2.6-.6 1.2-1 1.8zM201.7 149.7c1.5.4 3.1 1.4 4.6 1.9l-.3-.1c-1.4-.3-2.9-1.3-4.3-1.8zM208 157.6h0zM92.4 168.5H92.7h-.3zM190.4 51.5h-.2.2zM115.8 131.5c-.5-.2-1-.7-1.3-1.5.3.6.8 1.1 1.3 1.5zM113.8 123.7c.5.8.6 1.7.6 2.5-.5-2.4-1.3-3.3-3.3-4.9-1.4-1-4-2.6-5.8-2.7 2.8 0 7 3 8.5 5.1zM119.3 130.1l-.2 1.8c0 .7-.3 1.4-.6 2 .5-1.1.7-2.5.7-3.6v-.2zM101.7 114.7l-.1.1zM216.5 155.6c.1.6 0 1-.1 1.3.1-.3.2-.8.1-1.3zM118.5 134.1zM212.4 152.5c-1-.3-2.2-.4-3.4-.5 2.7.2 6.3.4 7.2 2.7-.7-1.4-2.3-1.9-3.8-2.2zM102.5 114.1zM102 114.4zM198 153.3h-.2l-.2-1.2.3 1.2z"/><path fill="#c00" d="M164.4 34c0 .9-.3 1.8-.7 2.8l-1 1.8a9.7 9.7 0 01-4.3 3.6c-3.5 1.3-8 1-11.7 1-8.9.2-15 2.6-21.7 8.3-1 .4-2.2 1.8-3 2.5a68.5 68.5 0 00-5.3 5.4c-5 5.6-7.1 12.2-10.7 18.6-2.8 4.9-7.6 8.8-13.2 5.3-6.1-3.9-6.7-11.2-5.3-17.8.7-3.3 3.7-5.8 4.3-8.9.3-1.4-.4-3-1.3-4-.5-.7-.9-1-1.3-1l.8-.1c-.4-1.8-.6-3.5-.3-5.3a39 39 0 019.4-20c5.2-5.5 14-8.6 20.7-3.5.7.5 2.4 3.2 2.7 3.1 1.3-.1 2.2-.6 2.6-1.9.9-2.8 3.2-4.1 5.7-6 4.4-3.3 13.6-3.7 17 1.1.8 1.3 1.8 4.5 3.7 4 1.4-.3 3-2.7 4-2.8a11 11 0 015.5.5c2.6 1 5.6 3.5 5.4 6.5 0 2.3-2 4.4-2 6.8z"/><path fill="#c96" d="M168.5 184.9c-3-.9-5-3.4-6.3-6.1l.2-.3c1.4 3 3.5 5.2 6 6.4zM236.9 129.6zM150 187.6c-3 1.7-7 2.1-10.2 1 3.3.5 6.9 0 10.3-1z"/><path fill="#c96" d="M80.1 138.8c2.6-2.7 3.6-6 5-9.3h-.4c.3-.1.6-.4.9-1l1.2-3.1c.6-2.2 1.1-4.4 1.4-6.6.5-4.2.9-8.7-.6-12.8a410 410 0 00-2.5-7c-.7-1.9-1.6-3.8-1.9-5.8-.3-1.7 0-2.4-1-2.6l.7-.1c-.2-4.2.3-8 1.5-12l.6-.5c3.7 8 15.2 14.5 21.6 5.2 1.7-2.6 2.6-5.8 4-8.6 1.6-3 3.3-6 5.2-8.8a50.3 50.3 0 0113.7-14.3h-.8a5 5 0 002-.8c1.5-1 3-2 4.6-2.6 3.5-1.6 6.8-2 10.6-2 7-.1 14 1 18.3-5.7.9-1.4 1.6-2.9 2.2-4.4.8-2.2.5-1.6 2.5-1.2 1.3.3 1.5 0 3 .9 1.6 1 3.4 1.7 5 2.8 3 2.1 5.5 5 8 7.6 1 1.2 2.2 2.5 3.1 3.8.8 1 1.4 1.4 2.2 1.6h-1c5.2 5.4 9 13 12.2 19.7l6 12 2.4 5.5c.6 1.3 1 1.7 1.8 1.8h-1c3 6.6 5.7 13.3 8.4 20v.4c0 1 .8 2.3 1.6 3.5l3.7 8.1 2.3 4.8c.8 1.5 1.2 2 2 2.1h-.9c1.5 2.3 3.2 5 5.5 6.3 1 .1 1.7.8 2.4 1.2a16 16 0 00-2.2-4l-2-2.8c-.3-.3-.7-.5-1-.6h.5l-4-7 4.4 3.9a79.2 79.2 0 013.4 3h-.1c2.6 2.4 4.5 4.8 5.4 8.3.5 2 .8 2.8-.8 3.8-1.1.8-2 1.6-1.8 3 .6 6.8-5 10.3-10.5 12.4-4 1.5-8.1 1.4-12.3 1.2.9-.1 1.5-.5 1.8-1.2.2-.3.2-.7.1-1.3v-.2c0-.3-.2-.5-.3-.7-1-2.3-4.5-2.5-7.2-2.7l-2.7-.4c-1.5-.5-3-1.5-4.6-1.9a4 4 0 00-2-.1c-1.4.2-2 1-2 2v.5l.1 1.1a29 29 0 01-1.6-1.2c-1.6 2.4-.6 5.3-1.2 8-.6 3-1.6 5.7-2.9 8.5h.8c-.7.1-1 .5-1.7 1.6a30.8 30.8 0 01-7.5 9.2c-3.6 3-8.8 4.8-13.6 3.8-3.5-.8-3.7-3.5-5.2-6.4-.5-.9-1.1-2.2-2-2.2-.3 0-2.1 1.4-2.4 1.7-3.6 4.4-8 8.2-13.6 9.5a13.8 13.8 0 01-11.6-2.2c-1.6-1.1-2-1.8-2.6-3.6-.8-2-2-4-2.2-5.8-.2-1.2-.8-2.4-2-2.8-1.5-.5-2 .4-3.2 1.2-5.9 3.8-13.7 5-20.5 3.3a20.1 20.1 0 01-9.5-5.6c-1.1-1-1.8-1.4-2.6-1.6l.9-.1c-3-4.3-3.4-9.1-2.8-14.1.2-1.6-2.8-1.8-3.7-2-1.8-.5-3.5-2.8-4.9-4-1.3-1.4-3.8-4.2-4.1-6.2l.2-1.5c.4-.6 1.2-1.1 1.8-1.9zm8.2-7.4c0 .8.2 1.5.4 2 0 .7.2 1.3.3 1.9a15 15 0 003.4 5.7c.5.5 1.4 1 1.8 1.5.6.8.3.9.4 2 0 1.5.2 3 .7 4.5 1.7 5.7 5.9 10.2 12.3 9.4 1.3-.1 2.6-.5 3.7-1.4 1-.8.8-.3 1.8.2 2 1.1 3.5 2.3 6 2.5 6.2.3 11.9-3.2 13.4-9.3 1.6-6.7-3-14.3-8.1-18.1-1.4-1-2.9-1.4-3.5-2.9-.5-1.4-.3-3.8-.6-5.3-.6-3.7-2.4-6.7-5.6-8.8-5.6-3.5-14.3-3.9-19.6.3a18 18 0 00-6.6 13.2c-.4.8-.4 1.4-.2 2.6z"/><path d="M92.6 121.5c.7-3.1 4.9-5.7 7.6-7 .8-.3 1.7-.5 2.6-.6a17 17 0 016.8 1.1c3.4 1.2 6.7 2.9 8.5 6.1a15 15 0 011.2 9l-.1.2c0 1.1-.2 2.5-.7 3.7v.1c-2.2 5-9 7.4-13.7 7.6-5.6.2-9.3-.1-12.3-5-2.4-4.1-2.7-11.2.1-15.2z" fill="#ff6500"/><path fill="#c00" d="M109.6 155.7c-1.1.8-2.7 1-4 1-6.4-.4-8.5-7.6-8.9-13 4 1 7.2 1.2 11.3.5-1.5 2.6-.3 5.1 1 7.5 1 1.8 2.5 2.7.6 4zM123.8 156.4c-4.2 1.4-8.6.6-11-3.1-2-2.8-2.6-6.1-4-9 0-.5 6-2.8 7.1-3.6 2.5-1.7 5-4.8 5.4-7.9 4 4 7.6 7.2 8.5 13 .7 5-1.2 9-6 10.7z"/><path fill="#ce9a63" d="M197.6 151.7c.1-1 .7-1.9 2.2-2.1a4 4 0 011.9.1c1.4.5 2.9 1.5 4.3 1.8h.3c.9.3 1.8.4 2.7.5 1.2.1 2.3.2 3.4.5 1.5.3 3.1.8 3.8 2.2l.3.7v.2l-.1 1.3c-.3.7-1 1-1.8 1.2l-4.6-.3a18 18 0 01-2-.2c-3.6-.6-7.1-2.2-10-4.3a3.6 3.6 0 01-.4-1.6z"/><path d="M119.6 106.9a7 7 0 01-4.2-4c-1-2.2-1.2-5.2 1.3-7s7.8 1.6 7.8 4.2.4 4.8-.7 6-2.5 1.2-4.2.8zM96.8 104c-1.6-.5-2.7-2.3-3.3-3.6-.8-1.7-1-4 .5-5.4 3-2.9 6.1 1.5 6.6 4.3.4 2.2-1.2 5.3-3.8 4.6zM88.5 128.8a18 18 0 016.6-13.2c5.3-4.2 14-3.8 19.6-.3 3.2 2 5 5 5.6 8.8.3 1.5 0 3.9.6 5.3.6 1.5 2 1.8 3.5 2.9 5.2 3.8 9.7 11.4 8 18-1.4 6.2-7.1 9.7-13.3 9.4-2.5-.2-4-1.4-6-2.5-1-.5-.7-1-1.8-.2-1 .9-2.4 1.3-3.7 1.4-6.4.8-10.6-3.7-12.3-9.4a19 19 0 01-.7-4.5c-.1-1.1.2-1.2-.4-2-.4-.6-1.3-1-1.8-1.5a15 15 0 01-3.4-5.7 25.7 25.7 0 01-.5-6.5zm32.8 4c-.4 3.1-2.9 6.2-5.4 8-1 .7-7.2 3-7.1 3.5 1.4 2.9 2 6.2 4 9 2.4 3.7 6.8 4.5 11 3.2 4.8-1.7 6.7-5.7 6-10.6-.9-5.9-4.5-9.2-8.5-13zM109 151.7c-1.3-2.4-2.5-5-1-7.5-4 .7-7.3.5-11.3-.4.4 5.3 2.5 12.5 8.8 12.8 1.4 0 3 0 4.1-.9 2-1.3.3-2.2-.6-4zm-4.2-10c4.6-.2 11.5-2.7 13.7-7.6v-.1l.6-2.1.2-1.8c.3-3 .4-6.1-1.2-9-1.8-3.2-5-5-8.5-6a17 17 0 00-6.8-1.2c-.9.1-1.8.3-2.6.7-2.7 1.2-6.9 3.8-7.6 7-2.8 3.9-2.5 11 0 15 2.9 5 6.6 5.3 12.2 5z"/><path d="M83.3 100.7c-1.3-3.4-2-6.6-2.5-10.2h.5c-.3-.1-.5-.4-.5-1v-3c0-2 .3-4 .7-6 .6-3.2 2.2-6.1 2.3-9.2 0-3.6.6-7.3 2.3-10.5.6-1.3 3-3.8 2.4-5-.5-1.4-1-2.8-1.3-4.3h.5c-.4-.2-.5-.5-.6-1.4v-3.6c.2-2.5.7-5 1.4-7.4 1.5-5.5 4.9-9.8 8.3-14.2 4.9-5.7 12.3-9.3 19.8-6.6a42 42 0 015.4 2.3c1.2.6 2.8-2 4-2.8 2.7-2.3 5.9-3.8 9.4-4.7 3.3-.9 7.5-1 10.7.3 1.6.7 3 2.2 4 3.6 1.6 2 1.5 2.5 3.8 1.4 6-2.7 14.9 2 14.9 8.9a9 9 0 01-1 4 51.3 51.3 0 0125 20.2c9 11.6 15.2 25.5 20.8 39h-1.1c1 0 1.3.4 2 2l2.8 7.1 4.2 10.5 3 6.8c.4 1.2 3.2 2.7 4.4 3.8 3 2.6 6.6 5.5 9 8.8h-1c1.2.2 1.9.7 2.9 2.4 1.1 1.8 2 3.5 2.8 5.5.6 1.7.7 3.6-.4 5.1-.8 1-1.1 1.5-.8 2.8 1 3.3 3.9 6.8 5.3 10 1.8 4.3 3.2 8.7 4.4 13.2-3.5 0-3-.3-4-3.6L245 159c-1.6-3.8-3-7.7-5.5-11-1.3 8.7-12.3 12.9-20 12.9-2.2 0-4.4-.6-6.6-.7-2.2 0-4.2.1-6.4-.2-3.3-.5-5.8-.8-8.8-2.4a35.3 35.3 0 01-2.5 10.1c-.2.4-.5.6-.8.7h.4a29 29 0 01-16.4 16.6c-3.5 1.4-7 1.3-10-.1a12.7 12.7 0 01-6-6.4s0 .2-.2.3a24.4 24.4 0 01-22.4 9.8c-1.2-.2-2.4-.6-3.6-1a11.3 11.3 0 01-5.6-5.2c-1.3-2-3.2-5-3.2-7.5-1.8.6-3.2 1.8-5 2.4l-6.2 1.7c-3.8.9-7.8.9-11.6 0-6.2-1.4-11.2-5-14.6-10.5h.3l-.4-.3c-.4-1-.9-2-1.1-3a30.2 30.2 0 01-1-8c.1-1.7-.1-1.2-1.3-2-1.3-.8-2.7-1.1-3.8-2.4-2.7-2.9-7.4-7.2-7.1-11.5.1-1.8 1.1-3 2.3-4.3 1.6-1.9 3-4 4.5-6.2 0-.9.4-1.2 1-1.3h-.5c2.2-6.7 4.1-13.9 3.2-21zm77.7-80a11 11 0 00-5.6-.5c-.8 0-2.5 2.5-4 2.9-1.8.4-2.8-2.8-3.7-4-3.3-4.9-12.5-4.5-16.9-1.2-2.4 1.9-4.8 3.2-5.7 6-.4 1.3-1.3 1.8-2.6 2-.3 0-2-2.7-2.7-3.2-6.6-5-15.5-2-20.7 3.5a39 39 0 00-9.4 20c-.3 1.8-.1 3.5.3 5.3h-.8c.5.1.8.4 1.3 1 .9 1.1 1.6 2.7 1.3 4.1-.6 3.1-3.6 5.6-4.3 8.9-1.4 6.6-.8 14 5.3 17.8 5.6 3.5 10.4-.4 13.2-5.3 3.6-6.4 5.7-13 10.7-18.6 1.7-1.9 3.5-3.7 5.4-5.4.8-.7 2-2.1 3-2.5a31.3 31.3 0 0121.6-8.3c3.7 0 8.2.3 11.7-1 1.6-.6 3.2-2 4.3-3.6.4-.6.8-1.2 1-1.8.4-1 .7-2 .7-2.8 0-2.4 2-4.5 2-6.8.2-3-2.8-5.5-5.4-6.5zM78 142.2c.4 2 2.9 4.8 4.2 6.1 1.4 1.2 3 3.6 4.9 4 1 .3 4 .5 3.7 2-.6 5-.2 9.9 2.8 14.1l-1 .1h-.2.3c.8.3 1.5.7 2.6 1.7a20.1 20.1 0 009.6 5.5c6.7 1.8 14.5.6 20.4-3.2 1.2-.8 1.7-1.7 3.2-1.2 1.3.4 1.8 1.6 2 2.8.2 1.9 1.5 3.9 2.2 5.8.7 1.8 1 2.5 2.6 3.6a13.8 13.8 0 0011.6 2.2c5.6-1.3 10-5.1 13.6-9.5.3-.3 2.1-1.7 2.5-1.7.8 0 1.4 1.3 2 2.2 1.4 2.9 1.6 5.6 5.1 6.4 4.8 1 10-.8 13.6-3.8a30.7 30.7 0 007.5-9.2c.7-1.1 1-1.5 1.7-1.6h-.8c1.3-2.8 2.3-5.6 3-8.5.5-2.7-.5-5.6 1.1-8l1.6 1.2h.1c3 2.2 6.5 3.8 10 4.4h.2l1.9.2 4.6.3c4.2.2 8.3.3 12.3-1.2 5.6-2.1 11-5.6 10.5-12.4-.1-1.4.7-2.2 1.8-3 1.6-1 1.3-1.9.8-3.9-.9-3.4-2.8-5.8-5.4-8.1h.1l-.3-.2-3.1-3-4.4-3.9 4 7h-.6c.4.2.8.4 1 .7l2.1 2.8a16 16 0 012.2 4c-.7-.4-1.4-1-2.4-1.2-2.3-1.3-4-4-5.5-6.2h1c-1-.2-1.3-.7-2-2.2l-2.4-4.8-3.7-8.1-1.2-2.9-.4-1c-2.7-6.7-5.4-13.4-8.4-20h1c-.8-.1-1.2-.5-1.8-1.8l-2.5-5.5-5.9-12c-3.3-6.6-7-14.3-12.1-19.7H190.2c-.8-.2-1.4-.6-2.1-1.6l-3.2-3.8c-2.5-2.6-5-5.5-8-7.6-1.6-1.1-3.4-1.8-5-2.8-1.5-.9-1.6-.6-3-.9-2-.4-1.7-1-2.5 1.2-.6 1.5-1.3 3-2.2 4.4C160 47.2 153 46 146 46a25.2 25.2 0 00-15.2 4.6 5 5 0 01-2 .8h.8c-5.6 3.8-10 8.7-13.7 14.3a94.5 94.5 0 00-5.2 8.8c-1.4 2.8-2.3 6-4 8.5-6.4 9.4-17.9 2.8-21.6-5 0-.3-.2-.5-.3-.7l-.3 1c-1.2 4-1.6 7.9-1.5 12l-.7.1H82h.3c1 .3.8 1 1 2.7.3 2 1.2 4 1.9 5.8l2.6 7c1.4 4 1 8.6.5 12.8a38 38 0 01-2.6 9.7c-.3.6-.6.9-.9 1h.5c-1.5 3.3-2.5 6.6-5 9.3-.7.8-1.4 1.3-1.8 2a2 2 0 00-.3 1.2v.2z"/></svg>