<?xml version="1.0" encoding="UTF-8" standalone="no"?>
<svg
   xmlns:dc="http://purl.org/dc/elements/1.1/"
   xmlns:cc="http://creativecommons.org/ns#"
   xmlns:rdf="http://www.w3.org/1999/02/22-rdf-syntax-ns#"
   xmlns:svg="http://www.w3.org/2000/svg"
   xmlns="http://www.w3.org/2000/svg"
   xmlns:sodipodi="http://sodipodi.sourceforge.net/DTD/sodipodi-0.dtd"
   xmlns:inkscape="http://www.inkscape.org/namespaces/inkscape"
   version="1.1"
   id="svg2"
   width="320"
   height="303"
   viewBox="0 0 320 303"
   sodipodi:docname="lol.svg"
   inkscape:version="1.0.2 (e86c870879, 2021-01-15)">
  <metadata
     id="metadata8">
    <rdf:RDF>
      <cc:Work
         rdf:about="">
        <dc:format>image/svg+xml</dc:format>
        <dc:type
           rdf:resource="http://purl.org/dc/dcmitype/StillImage" />
        <dc:title></dc:title>
      </cc:Work>
    </rdf:RDF>
  </metadata>
  <defs
     id="defs6" />
  <sodipodi:namedview
     pagecolor="#ffffff"
     bordercolor="#666666"
     borderopacity="1"
     objecttolerance="10"
     gridtolerance="10"
     guidetolerance="10"
     inkscape:pageopacity="0"
     inkscape:pageshadow="2"
     inkscape:window-width="1366"
     inkscape:window-height="768"
     id="namedview4"
     showgrid="false"
     inkscape:zoom="1.9042904"
     inkscape:cx="58.912478"
     inkscape:cy="151.5"
     inkscape:window-x="0"
     inkscape:window-y="0"
     inkscape:window-maximized="0"
     inkscape:current-layer="g10" />
  <g
     inkscape:groupmode="layer"
     inkscape:label="Image"
     id="g10">
    <path
       style="fill:#16a653;fill-opacity:1"
       d="M 3.5662879,299.6572 1,297.09091 v -27.48036 c 0,-15.56557 0.4257994,-28.60029 0.9820672,-30.06338 1.1059296,-2.90882 5.2807691,-4.91591 8.2590788,-3.97063 1.08734,0.34511 11.265404,9.81956 22.617918,21.05433 L 53.5,277.05774 54,257.93817 c 0.486432,-18.60074 0.564062,-19.17138 2.860784,-21.02887 3.034646,-2.45429 5.230245,-2.41214 8.504357,0.16328 L 68,239.14516 V 268.5 297.85484 l -2.634859,2.07258 C 63.915969,301.06734 61.80239,302 60.6683,302 59.320418,302 51.304898,294.72733 37.523302,281 25.927643,269.45 16.116222,260 15.720143,260 15.324064,260 15,268.46399 15,278.80887 c 0,20.60995 -0.278843,21.728 -5.6837121,22.7894 -2.5749295,0.50566 -3.6744322,0.13449 -5.75,-1.94107 z M 84.072693,286.01991 C 79.082712,277.20738 75,269.53111 75,268.96152 c 0,-0.56959 4.091115,-8.45313 9.091368,-17.51898 l 9.091368,-16.48337 20.104784,0.27042 20.10479,0.27041 3.86141,9 c 2.12378,4.95 4.48754,10.4625 5.25282,12.25 l 1.39141,3.25 h -7.24066 -7.24065 l -2.7135,-5.5327 -2.71349,-5.53271 -11.23504,0.28271 -11.23504,0.2827 -5.21582,9 c -2.868701,4.95 -5.235605,9.51471 -5.259785,10.1438 -0.02418,0.62909 2.30067,5.24159 5.166334,10.25 L 101.4206,288 h 10.76402 10.76402 l 1.52568,-2.95034 C 125.31344,283.42697 126,281.67041 126,281.14619 c 0,-0.52422 -4.31526,-1.10907 -9.58947,-1.29966 -8.65305,-0.31269 -9.77602,-0.57706 -11.5,-2.70731 -2.45554,-3.03423 -2.4137,-5.22983 0.16205,-8.50436 L 107.14516,266 h 20.92742 c 11.51008,0 20.9072,0.3375 20.88249,0.75 -0.0247,0.4125 -3.96221,8.4 -8.75,17.75 l -8.70507,17 -19.17731,0.27134 -19.177304,0.27134 z m 74.381857,13.52554 C 156.05901,297.14992 156,296.71717 156,281.54545 V 266 h 7 7 l -0.0153,15.75 c -0.008,8.6625 -0.34592,16.24513 -0.75,16.8503 -1.00289,1.50196 -4.75092,3.3997 -6.7144,3.3997 -0.88616,0 -2.71574,-1.10455 -4.06574,-2.45455 z m 22.40623,0.54421 -2.36078,-1.91034 -0.29615,-27.77113 c -0.31568,-29.60226 0.0245,-32.27996 4.35189,-34.25163 2.62864,-1.19769 4.96043,-0.69752 7.69426,1.65043 1.55159,1.33258 1.75,3.6396 1.75,20.348 0,10.36475 0.34162,18.84501 0.75915,18.84501 0.41753,0 9.97591,-9.225 21.24085,-20.5 19.27024,-19.28745 20.7007,-20.5 24.18415,-20.5 6.69656,0 6.81585,0.58145 6.81585,33.22251 0,27.44416 -0.0927,28.87016 -2,30.77749 -2.87752,2.87752 -7.39166,2.58884 -9.92742,-0.63486 C 231.14467,296.91421 231,295.43302 231,278.14586 v -18.58441 l -21.30316,21.21927 c -22.72666,22.63717 -23.81907,23.36867 -28.83606,19.30894 z m 74.59377,-0.54421 c -4.2121,-4.21209 -3.35312,-5.95034 9.24225,-18.70278 L 276.39361,269 264.6968,257.15733 c -12.3894,-12.54391 -13.54494,-14.75163 -9.9468,-19.0039 0.9625,-1.13748 3.00586,-2.36573 4.54081,-2.72944 2.54467,-0.60297 3.86997,0.40559 15.02701,11.43567 l 12.23619,12.09696 11.64498,-11.64497 c 10.05868,-10.05869 12.0855,-11.64498 14.87883,-11.64498 2.15867,0 3.84699,0.7572 5.07801,2.27745 3.67253,4.53538 2.62303,6.58197 -9.85263,19.21321 L 296.60639,269 308.3032,280.84267 c 12.59537,12.75244 13.45435,14.49069 9.24225,18.70278 -4.57488,4.57489 -6.73617,3.50624 -20.58616,-10.17885 l -10.54072,-10.41522 -9.95928,10.07425 c -13.46671,13.62214 -16.42222,15.10235 -21.00474,10.51982 z m -99.29557,-50.01204 c 0.36519,-11.20839 1.05032,-12.84128 5.8843,-14.02413 1.77735,-0.43491 3.35844,0.0189 5.25,1.50678 C 169.9264,239.08727 170,239.4287 170,249.57258 V 260 h -7.09102 -7.09103 z M 93.304601,218.20942 C 92.647132,217.79144 86.411526,207.33583 79.447698,194.97473 72.48387,182.61363 59.571567,159.675 50.75369,144 41.935814,128.325 34.276153,114.93429 33.732222,114.24286 31.598284,111.53026 32.588484,105.59063 36.190015,99.5 39.086221,94.60216 61.416065,53.491727 84.608018,10.359876 87.015333,5.8828072 89.700144,1.9453072 90.574265,1.6098756 91.448385,1.274444 120.37664,1 154.85928,1 210.17508,1 217.81846,1.1845438 219.79331,2.5677838 222.31554,4.3344237 266,77.006957 266,79.436249 266,80.809891 263.16423,81 242.67431,81 c -22.92426,0 -23.36045,-0.03872 -25.34618,-2.25 -1.11128,-1.2375 -6.42149,-9.346027 -11.80047,-18.01895 -5.37898,-8.672922 -10.11081,-15.973425 -10.51518,-16.223339 -1.21569,-0.751334 -73.61593,-0.870828 -74.82513,-0.123497 -0.61544,0.380363 -9.00937,14.55512 -18.65317,31.499461 -13.37823,23.50581 -17.528292,31.614755 -17.509338,34.212105 0.02193,3.00484 13.826216,29.40825 32.626308,62.40422 4.80735,8.43736 5.09594,8.49881 39.84885,8.48479 16.5,-0.007 31.06221,-0.29644 32.36047,-0.64396 C 191.46738,179.64299 209,154.20038 209,151.11517 c 0,-0.9531 -0.61262,-2.57072 -1.36138,-3.59471 -1.27838,-1.74829 -3.52224,-1.87406 -36.80127,-2.06268 -38.99217,-0.22101 -38.30888,-0.11938 -44.52602,-6.62246 -4.0422,-4.22811 -5.31695,-7.6384 -5.28937,-14.15042 0.0398,-9.4071 5.16844,-16.63097 13.87726,-19.5468 2.41362,-0.80811 23.94239,-1.1381 74.25,-1.1381 61.66525,0 70.85078,0.19056 70.85078,1.46982 0,0.8084 -2.65337,6.3209 -5.89638,12.25 -3.24301,5.9291 -13.98104,25.63018 -23.86228,43.78018 -26.53344,48.737 -30.54972,55.92543 -31.69846,56.73469 -1.38592,0.97635 -123.701574,0.95167 -125.238279,-0.0253 z"
       id="path14" />
  </g>
</svg>
